<svg viewBox="0 0 500 500" xmlns="http://www.w3.org/2000/svg" xmlns:bx="https://boxy-svg.com">
  <defs></defs>
  <path style="stroke-width: 0px; stroke: rgb(108, 212, 194); fill: rgb(115, 196, 219);" d="M 83.08983333333335 58.35316666666666 C 74.864 64.682 71.087 71.721 63.56666666666667 84.22733333333333 C 56.04633333333334 96.73366666666668 44.78266666666667 114.70733333333334 38.91133333333333 134.35850000000002 C 33.04 154.00966666666667 32.561 175.33833333333334 34.717999999999996 200.50133333333335 C 36.875 225.6643333333333 41.668 254.66166666666666 42.266999999999996 278.866 C 42.86600000000001 303.07033333333334 39.271 322.4816666666666 38.55183333333334 351.5988333333333 C 37.83266666666667 380.71599999999995 39.989333333333335 419.539 60.599 439.78933333333333 C 81.20866666666667 460.03966666666673 120.27133333333335 461.71733333333333 156.81766666666667 466.15083333333337 C 193.364 470.5843333333333 227.394 477.77366666666666 262.862 477.8935000000001 C 298.33 478.0133333333333 335.236 471.0636666666667 369.3858333333333 466.1508333333333 C 403.53566666666666 461.238 434.9293333333333 458.362 454.34066666666666 444.2228333333333 C 473.75199999999995 430.08366666666666 481.18100000000004 404.68133333333327 476.50783333333334 377.122 C 471.83466666666664 349.5626666666667 455.0593333333333 319.84633333333335 449.0683333333333 291.08866666666665 C 443.07733333333334 262.33099999999996 447.8706666666667 234.532 449.7878333333333 206.3735 C 451.705 178.215 450.7459999999999 149.697 442.5978333333333 128.7276666666667 C 434.44966666666664 107.75833333333333 419.1123333333333 94.33766666666668 402.45683333333324 80.438 C 385.80133333333333 66.53833333333334 367.82766666666663 52.15966666666666 346.48299999999995 46.27783333333333 C 325.1383333333333 40.395999999999994 300.42266666666666 43.010999999999996 281.30083333333334 43.784333333333336 C 262.17900000000003 44.55766666666667 248.65099999999998 43.48933333333333 229.65733333333333 41.70283333333333 C 210.66366666666667 39.916333333333334 186.20433333333335 37.41166666666666 166.46133333333333 37.13933333333333 C 146.71833333333333 36.867 131.6916666666667 38.827 117.841 42.61633333333334 C 103.99033333333334 46.40566666666666 91.31566666666667 52.02433333333334 83.08983333333335 58.35316666666666" bx:d="M 78.641 57.643 U 67.31 78.76 U 33.519 132.681 U 32.082 196.667 U 46.461 283.659 U 35.676 341.893 U 42.146 458.362 U 159.334 463.395 U 261.424 484.963 U 372.142 464.114 U 466.323 455.486 U 488.61 379.279 U 438.284 290.13 U 452.664 206.733 U 449.787 121.179 U 403.775 80.917 U 349.854 37.781 U 275.707 45.626 U 235.123 42.421 U 161.745 34.907 U 116.665 40.787 Z 1@6a958cef"></path>
  <path style="stroke: rgb(119, 183, 191); stroke-width: 0px; fill-opacity: 0.06;" d="M 85.54766666666667 294.1155 C 75.735 294.23966666666666 64.05900000000001 294.73633333333333 56.978833333333334 303.05833333333334 C 49.898666666666664 311.38033333333334 47.41433333333333 327.5276666666667 46.54483333333334 345.78666666666663 C 45.675333333333334 364.04566666666665 46.42066666666667 384.41633333333334 50.02283333333333 400.5638333333333 C 53.625 416.71133333333336 60.084 428.6356666666666 70.26933333333334 436.461 C 80.45466666666668 444.2863333333333 94.36633333333334 448.0126666666667 116.72433333333333 451.61466666666666 C 139.08233333333334 455.2166666666667 169.88666666666668 458.69433333333336 194.48033333333333 461.92383333333333 C 219.07399999999998 465.15333333333336 237.457 468.13466666666665 256.8338333333333 468.5073333333333 C 276.21066666666667 468.87999999999994 296.58133333333336 466.644 317.32466666666664 464.1596666666667 C 338.068 461.67533333333336 359.184 458.94266666666664 380.3 455.71316666666667 C 401.416 452.4836666666667 422.532 448.7573333333333 437.31316666666675 442.5468333333333 C 452.0943333333334 436.33633333333336 460.5406666666667 427.64166666666665 465.2606666666666 418.5743333333333 C 469.98066666666665 409.507 470.97433333333333 400.067 469.608 388.51533333333333 C 468.2416666666666 376.9636666666667 464.51533333333333 363.30033333333336 460.04366666666664 350.134 C 455.57199999999995 336.9676666666667 450.355 324.29833333333335 446.1318333333333 315.6035 C 441.90866666666665 306.9086666666667 438.6793333333333 302.18833333333333 419.17816666666664 303.4303333333334 C 399.67699999999996 304.67233333333337 363.904 311.8766666666667 333.72049999999996 315.1061666666667 C 303.537 318.33566666666667 278.943 317.5903333333334 252.98300000000003 314.6093333333334 C 227.023 311.62833333333333 199.697 306.4116666666667 175.84866666666667 302.6855 C 152.00033333333334 298.9593333333333 131.62966666666668 296.7236666666667 117.46966666666667 295.4816666666666 C 103.30966666666666 294.23966666666666 95.36033333333334 293.99133333333333 85.54766666666667 294.1155" bx:d="M 87.411 293.743 U 52.383 295.233 U 44.93 343.675 U 47.166 404.787 U 66.543 440.56 U 108.278 451.739 U 200.691 462.172 U 255.84 471.116 U 316.952 464.408 U 380.3 456.21 U 443.648 445.031 U 468.987 418.947 U 471.968 390.627 U 460.789 349.637 U 445.138 311.629 U 435.45 297.468 U 328.131 319.081 U 254.349 316.845 U 172.371 301.195 U 111.259 294.488 Z 1@f193e911"></path>
  <polyline style="fill: rgb(216, 216, 216); stroke: rgb(0, 0, 0); stroke-linejoin: round; stroke-linecap: round; stroke-width: 26px; fill-opacity: 0; stroke-opacity: 0.93;" points="377.098 145.287 379.127 385.416 134.939 381.357"></polyline>
  <polyline style="fill: rgb(216, 216, 216); stroke: rgb(0, 0, 0); stroke-linecap: round; stroke-linejoin: round; stroke-width: 26px; fill-opacity: 0; stroke-opacity: 0.93;" points="128.518 324.438 120.838 128.709 295.377 313.617 296.545 118.905"></polyline>
</svg>
